<svg xmlns="http://www.w3.org/2000/svg" xmlns:xlink="http://www.w3.org/1999/xlink" xmlns:sketch="http://www.bohemiancoding.com/sketch/ns" width="22px" height="22px" viewBox="1.1 -2.2 22.0 29.7" version="1.1">
    <!-- Generator: Sketch 3.0.1 (7597) - http://www.bohemiancoding.com/sketch -->
    <title>editor_edit_compose_new_add</title>
    <description>Created with Sketch.</description>
    <defs/>
    <g id="miu" stroke="none" stroke-width="1" fill="none" fill-rule="evenodd" sketch:type="MSPage">
        <path d="M18,9 L18,22 L0,22 L0,4 L14,4 L14,5 L1,5 L1,21 L17,21 L17,9 L18,9 Z M20.2216561,0.4041585 C19.8201655,0.09047965 18.8179838,0.5765078 18.8179838,0.5765078 L18.2023224,1.36451855 L20.5663547,3.21150295 L21.1820161,2.4234922 C21.1820161,2.4234922 21.4132084,1.33510125 21.0096668,1.01982 L20.2216561,0.4041585 Z M19.3851607,3.02414411 L11.436199,13.3109714 L10.4057545,13.7749181 L10.6481882,12.6953099 L18.6517874,2.4511701 L17.842999,1.81927536 L9.83939982,12.0634152 L9.3591295,15.114537 L12.2034321,13.9103996 L20.2070313,3.66625979 L19.3851607,3.02414411 Z" id="editor_edit_compose_new_add" fill="#000000" sketch:type="MSShapeGroup"/>
    </g>
</svg>
